<svg width="336" height="98" viewBox="0 0 336 98" version="1.1" xmlns="http://www.w3.org/2000/svg" xmlns:xlink="http://www.w3.org/1999/xlink">
<title>main_header</title>
<desc>Created using Figma</desc>
<g id="Canvas" transform="translate(148 97)">
<g id="main_header">
<g id="Vector">
<use xlink:href="#path0_stroke" transform="translate(-147 -83)" fill="#F2F2F2"/>
</g>
<g id="Vector">
<use xlink:href="#path0_stroke" transform="matrix(-1 0 0 1 187 -83)" fill="#F2F2F2"/>
</g>
<g id="&#229;&#159;&#188;&#231;&#142;&#137;&#232;&#179;&#170;&#229;&#177;&#139;&#230;&#131;&#133;&#229;&#160;&#177;">
<a xlink:href="/" target="_top">
<use xlink:href="#path1_fill" transform="translate(-71 -105)" fill="#F2F2F2"/>
</a>
</g>
<g id="Rectangle" filter="url(#filter0_d)">
<a xlink:href="/shopinfo/" target="_top">
<use xlink:href="#path2_fill" transform="translate(-57 -39)" fill="#F2F2F2"/>
<mask id="mask0_outline_ins">
<use xlink:href="#path2_fill" fill="white" transform="translate(-57 -39)"/>
</mask>
</a>
<g mask="url(#mask0_outline_ins)">
<use xlink:href="#path3_stroke_2x" transform="translate(-57 -39)"/>
</g>
</g>
<g id="&#229;&#186;&#151;&#232;&#136;&#151;&#228;&#184;&#128;&#232;&#166;&#167;">
<a xlink:href="/shopinfo/" target="_top">
<use xlink:href="#path4_fill" transform="translate(-34 -39)" fill="#333333"/>
</a>
</g>
</g>
</g>
<defs>
<filter id="filter0_d" filterUnits="userSpaceOnUse" x="-61" y="-39" width="162" height="40" color-interpolation-filters="sRGB">
<feFlood flood-opacity="0" result="BackgroundImageFix"/>
<feColorMatrix in="SourceAlpha" type="matrix" values="0 0 0 0 0 0 0 0 0 0 0 0 0 0 0 0 0 0 255 0"/>
<feOffset dx="0" dy="4"/>
<feGaussianBlur stdDeviation="2"/>
<feColorMatrix type="matrix" values="0 0 0 0 0 0 0 0 0 0 0 0 0 0 0 0 0 0 0.25 0"/>
<feBlend mode="normal" in2="BackgroundImageFix" result="effect1_dropShadow"/>
<feBlend mode="normal" in="SourceGraphic" in2="effect1_dropShadow" result="shape"/>
</filter>
<path id="path0_stroke" d="M 0 0L 0 -1L -1 -1L -1 0L 0 0ZM 0 60L -1 60L -1 61L 0 61L 0 60ZM 80 -1L 0 -1L 0 1L 80 1L 80 -1ZM -1 0L -1 60L 1 60L 1 0L -1 0ZM 0 61L 90 61L 90 59L 0 59L 0 61Z"/>
<path id="path1_fill" d="M 13.836 18.028L 16.412 18.028L 16.412 14.864L 13.836 14.864L 13.836 8.648L 10.756 8.648L 10.756 14.864L 7.816 14.864L 7.816 18.028L 10.756 18.028L 10.756 25.728C 9.412 26.176 8.208 26.568 7.2 26.876L 8.32 30.264C 10.924 29.228 14.228 27.94 17.252 26.708L 16.608 23.628C 15.684 23.964 14.76 24.3 13.836 24.636L 13.836 18.028ZM 23.524 25.364L 23.524 27.604L 20.92 27.604L 20.92 25.364L 23.524 25.364ZM 26.352 29.872L 26.352 23.068L 18.12 23.068L 18.12 31.552L 20.92 31.552L 20.92 29.872L 26.352 29.872ZM 19.996 18.784C 22.404 18.14 23.944 17.216 24.98 15.984C 26.828 16.88 28.956 17.944 30.384 18.784L 19.996 18.784ZM 33.632 18.784L 31.504 18.784L 33.184 16.684C 31.56 15.76 28.536 14.388 26.268 13.408L 33.072 13.408L 33.072 10.608L 26.744 10.608C 26.828 9.908 26.856 9.152 26.884 8.368L 23.664 8.368C 23.636 9.18 23.608 9.936 23.552 10.608L 17.252 10.608L 17.252 13.408L 22.852 13.408C 22.012 15.032 20.332 15.956 16.832 16.6C 17.336 17.104 17.98 18.028 18.316 18.784L 16.02 18.784L 16.02 21.724L 28.424 21.724L 28.424 31.104C 28.424 31.44 28.284 31.552 27.864 31.552C 27.444 31.552 26.044 31.552 24.728 31.496C 25.176 32.364 25.624 33.568 25.792 34.464C 27.78 34.464 29.236 34.408 30.272 33.932C 31.336 33.456 31.644 32.7 31.644 31.16L 31.644 21.724L 33.632 21.724L 33.632 18.784ZM 50.124 30.236L 50.124 22.62L 58.72 22.62L 58.72 19.372L 50.124 19.372L 50.124 13.212L 59.952 13.212L 59.952 9.936L 37.104 9.936L 37.104 13.212L 46.456 13.212L 46.456 19.372L 38.448 19.372L 38.448 22.62L 46.456 22.62L 46.456 30.236L 35.872 30.236L 35.872 33.484L 61.24 33.484L 61.24 30.236L 50.124 30.236ZM 51.888 24.916C 53.428 26.484 55.584 28.668 56.592 29.984L 59.112 27.744C 58.02 26.456 55.808 24.412 54.296 22.984L 51.888 24.916ZM 70.536 26.484L 82.688 26.484L 82.688 27.716L 70.536 27.716L 70.536 26.484ZM 70.536 23.404L 82.688 23.404L 82.688 24.608L 70.536 24.608L 70.536 23.404ZM 70.536 20.296L 82.688 20.296L 82.688 21.5L 70.536 21.5L 70.536 20.296ZM 86.076 29.732L 86.076 18.308L 76.948 18.308C 78.376 17.3 79.216 16.096 79.692 14.864L 82.52 14.864L 82.52 17.804L 85.488 17.804L 85.488 14.864L 89.016 14.864L 89.016 12.456L 80.252 12.456C 80.28 12.176 80.28 11.896 80.28 11.644L 80.28 11.504C 82.884 11.28 85.768 10.916 87.924 10.3L 85.908 8.312C 84.396 8.76 81.96 9.18 79.636 9.46L 77.396 8.928L 77.396 11.476C 77.396 12.54 77.228 13.66 76.416 14.724L 76.416 12.456L 68.716 12.456C 68.744 12.176 68.744 11.868 68.744 11.616L 68.744 11.476C 71.18 11.28 73.84 10.888 75.856 10.272L 73.812 8.312C 72.412 8.76 70.172 9.18 67.988 9.432L 65.86 8.9L 65.86 11.448C 65.86 13.296 65.524 15.592 63.48 17.44C 64.152 17.832 65.216 18.896 65.664 19.512C 67.148 18.168 67.932 16.46 68.352 14.864L 70.816 14.864L 70.816 17.776L 73.784 17.776L 73.784 14.864L 76.304 14.864C 75.912 15.34 75.38 15.816 74.68 16.264C 75.268 16.656 76.192 17.608 76.612 18.308L 67.316 18.308L 67.316 29.732L 71.46 29.732C 69.528 30.684 66.476 31.58 63.76 32.084C 64.46 32.672 65.636 33.876 66.224 34.52C 69.052 33.736 72.636 32.364 74.96 30.852L 72.412 29.732L 80.588 29.732L 78.068 31.188C 80.896 32.252 83.752 33.568 85.348 34.492L 89.212 33.008C 87.308 32.084 84.088 30.74 81.232 29.732L 86.076 29.732ZM 109.736 20.52L 108.532 21.248C 108.98 21.556 109.456 21.92 109.904 22.312C 108.028 22.368 106.152 22.424 104.388 22.48C 104.836 21.864 105.312 21.192 105.76 20.52L 109.736 20.52ZM 112.312 12.26L 112.312 13.996L 97.752 13.996L 97.752 12.26L 112.312 12.26ZM 108.308 31.132L 108.308 29.2L 115.028 29.2L 115.028 26.568L 108.308 26.568L 108.308 24.832C 109.736 24.776 111.164 24.72 112.592 24.664C 113.096 25.14 113.544 25.616 113.88 26.036L 116.652 24.328C 115.672 23.208 113.88 21.724 112.228 20.52L 116.428 20.52L 116.428 17.916L 97.752 17.916L 97.752 17.664L 97.752 16.684L 115.672 16.684L 115.672 9.572L 94.42 9.572L 94.42 17.664C 94.42 22.116 94.196 28.416 91.424 32.728C 92.236 33.036 93.748 33.876 94.392 34.436C 96.8 30.684 97.528 25.084 97.696 20.52L 102.064 20.52C 101.672 21.22 101.252 21.948 100.86 22.592L 97.92 22.648L 98.06 25.252C 100.048 25.168 102.456 25.084 105.088 24.972L 105.088 26.568L 98.48 26.568L 98.48 29.2L 105.088 29.2L 105.088 31.132L 96.604 31.132L 96.604 33.764L 117.016 33.764L 117.016 31.132L 108.308 31.132ZM 121.468 21.92C 122.056 19.764 122.504 16.432 122.56 14.108L 120.208 13.8C 120.068 16.068 119.648 19.204 119.06 21.108L 121.468 21.92ZM 132.108 27.968L 132.108 26.68L 140.48 26.68L 140.48 27.968L 132.108 27.968ZM 140.48 23.012L 140.48 24.328L 132.108 24.328L 132.108 23.012L 140.48 23.012ZM 143.616 20.576L 129.028 20.576L 129.028 34.464L 132.108 34.464L 132.108 30.264L 140.48 30.264L 140.48 31.188C 140.48 31.524 140.34 31.636 139.948 31.636C 139.584 31.636 138.268 31.664 137.12 31.58C 137.512 32.392 137.904 33.596 138.016 34.408C 139.948 34.408 141.348 34.408 142.328 33.932C 143.336 33.484 143.616 32.7 143.616 31.244L 143.616 20.576ZM 137.876 17.132L 137.876 15.928L 143.896 15.928L 143.896 13.688L 137.876 13.688L 137.876 12.568L 144.652 12.568L 144.652 10.188L 137.876 10.188L 137.876 8.284L 134.572 8.284L 134.572 10.188L 128.02 10.188L 128.02 12.568L 134.572 12.568L 134.572 13.688L 128.776 13.688L 128.776 15.9C 128.44 14.864 127.796 13.296 127.208 12.092L 125.612 12.764L 125.612 8.284L 122.616 8.284L 122.616 34.408L 125.612 34.408L 125.612 14.052C 126.06 15.144 126.452 16.32 126.648 17.132L 128.832 16.068L 128.776 15.928L 134.572 15.928L 134.572 17.132L 127.152 17.132L 127.152 19.512L 145.492 19.512L 145.492 17.132L 137.876 17.132ZM 155.992 21.5L 151.904 21.5L 152.8 21.248C 152.688 20.464 152.296 19.26 151.82 18.252L 156.076 18.252C 155.824 19.204 155.404 20.408 155.096 21.248L 155.992 21.5ZM 155.488 13.52L 159.128 13.52L 159.128 10.776L 155.488 10.776L 155.488 8.34L 152.408 8.34L 152.408 10.776L 148.404 10.776L 148.404 13.52L 152.408 13.52L 152.408 15.452L 147.424 15.452L 147.424 18.252L 150.196 18.252L 149.188 18.504C 149.58 19.428 149.944 20.604 150.112 21.5L 148.012 21.5L 148.012 24.3L 152.408 24.3L 152.408 26.456L 148.236 26.456L 148.236 29.256L 152.408 29.256L 152.408 34.352L 155.488 34.352L 155.488 29.256L 159.436 29.256L 159.436 26.456L 155.488 26.456L 155.488 24.3L 159.744 24.3L 159.744 21.5L 157.644 21.5C 158.036 20.66 158.456 19.568 158.932 18.532L 157.84 18.252L 160.164 18.252L 160.164 15.452L 155.488 15.452L 155.488 13.52ZM 163.692 22.844C 164.392 25.056 165.288 27.1 166.38 28.892C 165.596 29.984 164.7 30.936 163.692 31.748L 163.692 22.844ZM 169.516 21.696C 169.18 23.208 168.676 24.692 168.032 26.036C 167.22 24.692 166.548 23.236 166.044 21.696L 169.516 21.696ZM 171 18.924L 170.44 19.064L 163.692 19.064L 163.692 12.372L 169.264 12.372L 169.264 14.668C 169.264 14.976 169.124 15.06 168.704 15.088C 168.284 15.088 166.744 15.088 165.372 15.032C 165.764 15.844 166.184 16.992 166.324 17.888C 168.368 17.888 169.88 17.86 170.944 17.412C 172.036 16.964 172.344 16.152 172.344 14.724L 172.344 9.46L 160.668 9.46L 160.668 34.408L 163.692 34.408L 163.692 32.756C 164.28 33.288 164.868 33.932 165.232 34.492C 166.38 33.652 167.388 32.644 168.284 31.496C 169.32 32.672 170.468 33.68 171.784 34.464C 172.26 33.624 173.212 32.448 173.94 31.832C 172.484 31.104 171.196 30.04 170.048 28.78C 171.476 26.148 172.456 23.012 172.988 19.624L 171 18.924Z"/>
<path id="path2_fill" d="M 0 10C 0 4.47715 4.47715 0 10 0L 144 0C 149.523 0 154 4.47715 154 10L 154 22C 154 27.5228 149.523 32 144 32L 10 32C 4.47715 32 0 27.5228 0 22L 0 10Z"/>
<path id="path3_stroke_2x" d="M 10 1L 144 1L 144 -1L 10 -1L 10 1ZM 153 10L 153 22L 155 22L 155 10L 153 10ZM 144 31L 10 31L 10 33L 144 33L 144 31ZM 1 22L 1 10L -1 10L -1 22L 1 22ZM 10 31C 5.02944 31 1 26.9706 1 22L -1 22C -1 28.0751 3.92487 33 10 33L 10 31ZM 153 22C 153 26.9706 148.971 31 144 31L 144 33C 150.075 33 155 28.0751 155 22L 153 22ZM 144 1C 148.971 1 153 5.02944 153 10L 155 10C 155 3.92487 150.075 -1 144 -1L 144 1ZM 10 -1C 3.92487 -1 -1 3.92487 -1 10L 1 10C 1 5.02944 5.02944 1 10 1L 10 -1Z"/>
<path id="path4_fill" d="M 26.26 21.92L 19.16 21.92L 19.16 19.2L 26.26 19.2L 26.26 21.92ZM 23.64 10.94L 21.22 10.94L 21.22 17.1L 16.84 17.1L 16.84 24.74L 19.16 24.74L 19.16 24L 26.26 24L 26.26 24.72L 28.7 24.72L 28.7 17.1L 23.64 17.1L 23.64 14.92L 29.88 14.92L 29.88 12.82L 23.64 12.82L 23.64 10.94ZM 22.86 8.38L 22.86 6.08L 20.38 6.08L 20.38 8.38L 13.26 8.38L 13.26 13.42C 13.26 16.3 13.12 20.5 11.48 23.36C 12.04 23.62 13.1 24.3 13.54 24.7C 15.34 21.58 15.64 16.64 15.64 13.42L 15.64 10.64L 30.14 10.64L 30.14 8.38L 22.86 8.38ZM 37.46 19.94L 37.46 21.74L 34.7 21.74L 34.7 19.94L 37.46 19.94ZM 32.64 24.7L 34.7 24.7L 34.7 23.68L 37.46 23.68L 37.46 24.3L 39.6 24.3L 39.6 18.02L 32.64 18.02L 32.64 24.7ZM 47.8 14.04L 47.8 15.32L 46.14 15.32L 46.14 14.04L 47.8 14.04ZM 46.14 18.54L 46.14 17.24L 47.8 17.24L 47.8 18.54L 46.14 18.54ZM 42.48 18.54L 42.48 17.24L 44.02 17.24L 44.02 18.54L 42.48 18.54ZM 44.02 14.04L 44.02 15.32L 42.48 15.32L 42.48 14.04L 44.02 14.04ZM 50.14 10.72L 50.14 8.68L 48.96 8.68L 50 7.82C 49.54 7.28 48.56 6.54 47.8 6.08L 46.4 7.12C 47.04 7.56 47.78 8.16 48.28 8.68L 46.14 8.68L 46.14 6.06L 44.02 6.06L 44.02 8.68L 40.06 8.68L 40.06 9.48C 39.32 8.42 37.94 7.04 36.78 6.08L 34.76 6.08C 34.1 7.56 32.96 9.38 31.32 10.76C 31.78 11.06 32.42 11.78 32.78 12.26L 32.78 13.84L 35.02 13.84L 35.02 15.2L 32.12 15.2L 32.12 17.12L 39.92 17.12L 39.92 15.2L 37.18 15.2L 37.18 13.84L 39.48 13.84L 39.48 12.02L 37.18 12.02L 37.18 10.32L 35.02 10.32L 35.02 12.02L 33.18 12.02C 34.48 10.76 35.42 9.4 36.14 8.22C 37.14 9.2 38.18 10.58 38.72 11.48L 40.06 9.8L 40.06 10.72L 44.02 10.72L 44.02 12.04L 40.42 12.04L 40.42 24.66L 42.48 24.66L 42.48 20.44L 44.02 20.44L 44.02 24.56L 46.14 24.56L 46.14 20.44L 47.8 20.44L 47.8 22.42C 47.8 22.6 47.74 22.66 47.56 22.66C 47.4 22.68 46.9 22.68 46.42 22.66C 46.7 23.2 46.96 24.1 47.02 24.68C 47.98 24.68 48.66 24.62 49.2 24.28C 49.76 23.92 49.88 23.38 49.88 22.46L 49.88 12.04L 46.14 12.04L 46.14 10.72L 50.14 10.72ZM 51.82 13.92L 51.82 16.5L 70.22 16.5L 70.22 13.92L 51.82 13.92ZM 74.84 11.9L 76.26 11.9L 76.26 12.62L 74.84 12.62L 74.84 11.9ZM 76.26 8.04L 76.26 8.68L 74.84 8.68L 74.84 8.04L 76.26 8.04ZM 78.66 10.64L 74.84 10.64L 74.84 9.94L 78.66 9.94L 78.66 10.64ZM 81.34 12.62L 78.16 12.62L 78.16 11.9L 80.74 11.9L 80.74 10.8C 81.26 11.08 82.08 11.62 82.46 11.96C 82.94 11.38 83.4 10.64 83.82 9.84L 90.06 9.84L 90.06 8L 84.64 8C 84.84 7.52 85 7.02 85.14 6.52L 83.02 6.06C 82.58 7.76 81.76 9.46 80.74 10.6L 80.74 8.68L 78.16 8.68L 78.16 8.04L 81.02 8.04L 81.02 6.7L 72.72 6.7L 72.72 13.96L 81.34 13.96L 81.34 12.62ZM 89.58 13.42L 89.58 11.62L 82.94 11.62L 82.94 13.42L 89.58 13.42ZM 76.92 19.38L 84.98 19.38L 84.98 20.04L 76.92 20.04L 76.92 19.38ZM 76.92 17.54L 84.98 17.54L 84.98 18.18L 76.92 18.18L 76.92 17.54ZM 76.92 15.72L 84.98 15.72L 84.98 16.36L 76.92 16.36L 76.92 15.72ZM 85.12 22.7C 84.3 22.7 84.16 22.64 84.16 22.16L 84.16 21.28L 87.34 21.28L 87.34 14.46L 74.68 14.46L 74.68 21.28L 77.26 21.28C 76.78 22.3 75.56 22.74 71.68 22.96C 72.08 23.4 72.56 24.24 72.7 24.76C 77.56 24.3 79.08 23.3 79.66 21.28L 81.84 21.28L 81.84 22.18C 81.84 23.98 82.42 24.54 84.8 24.54L 87.72 24.54C 89.5 24.54 90.08 23.98 90.3 21.82C 89.72 21.7 88.8 21.38 88.34 21.08C 88.26 22.48 88.12 22.7 87.5 22.7L 85.12 22.7Z"/>
</defs>
</svg>
